<svg xmlns="http://www.w3.org/2000/svg" style="display: none;">
  
    <symbol id="icon-chef-food-restaurant-streamline" viewBox="0 0 512 512">
      <path d="m384 512l-256 0c-6 0-10-4-11-10l-20-268c-43-5-76-41-76-85c0-47 40-87 86-87c10 0 19 2 28 6c15-41 62-68 121-68c56 0 95 23 119 69c9-4 20-7 30-7c46 0 86 40 86 87c0 44-33 80-76 85l-20 268c-1 6-5 10-11 10z m-246-21l236 0l21-268c0-5 5-10 10-10c36 0 64-28 64-64c0-38-34-65-64-65c-10 0-20 3-29 8c-3 2-6 3-9 2c-3-1-5-3-7-6c-20-46-53-67-104-67c-55 0-97 26-104 64c0 4-3 7-6 8c-3 2-7 1-10-1c-9-5-19-8-29-8c-30 0-64 27-64 65c0 36 28 64 64 64c5 0 10 5 10 10z m253-64l-270 0c-6 0-10-5-10-11c0-6 4-11 10-11l270 0c6 0 10 5 10 11c0 6-4 11-10 11z m-188 0c-6 0-11-5-11-11l0-85c0-6 5-11 11-11c6 0 10 5 10 11l0 85c0 6-4 11-10 11z m53 0c-6 0-11-5-11-11l0-107c0-6 5-10 11-10c6 0 11 4 11 10l0 107c0 6-5 11-11 11z m53 0c-6 0-10-5-10-11l0-85c0-6 4-11 10-11c6 0 11 5 11 11l0 85c0 6-5 11-11 11z"/>
    </symbol>
  
    <symbol id="icon-painting-pallet-streamline" viewBox="0 0 512 512">
      <path d="m267 11c-124 0-224 115-224 256c0 176 149 235 217 235l0 0c15 0 34-2 44-14c5-6 7-13 5-21c-11-53-2-87 9-101c4-5 8-7 13-7c9 0 21 9 31 25c14 20 30 30 46 30c51 0 83-97 83-147c0-149-95-256-224-256z m141 382c-11 0-21-12-28-22c-19-27-37-33-49-33c-11 0-22 5-30 15c-18 22-23 67-13 118c1 2 0 3 0 3c-3 3-12 7-28 7l0 0c-61 0-196-54-196-214c0-130 91-235 203-235c117 0 202 99 202 235c0 51-32 126-61 126z m-205-62c-30 0-54 24-54 53c0 29 24 53 54 53c29 0 53-24 53-53c0-29-24-53-53-53z m0 85c-18 0-32-14-32-32c0-18 14-32 32-32c17 0 32 14 32 32c0 18-15 32-32 32z m-22-171c0-11-4-22-12-30c-8-8-19-12-30-12c-12 0-22 4-30 12c-9 8-13 19-13 30c0 24 19 43 43 43c0 0 0 0 0 0c11 0 22-4 30-13c8-8 12-18 12-30z m-27 15c-4 4-10 7-15 7l0 10l0-10c-12 0-22-10-22-22c0-5 3-11 7-15c4-4 9-6 15-6c5 0 11 2 15 6c4 4 6 10 6 15c0 6-2 11-6 15z m38-68c0 0 0 0 0 0c11 0 22-4 30-13c8-8 13-18 13-30c0-11-5-22-13-30c-8-8-19-12-30-12c-11 0-22 4-30 12c-8 8-13 19-13 30c0 24 19 43 43 43z m-15-58c4-4 9-6 15-6c6 0 11 2 15 6c4 4 6 10 6 15c0 6-2 11-6 15c-4 4-9 7-15 7l0 10l0-10c-12 0-21-10-21-22c0-5 2-11 6-15z m111-70c-11 0-22 4-30 13c-8 8-13 18-13 30c0 23 19 42 43 42c0 0 0 0 0 0c11 0 22-4 30-12c8-8 13-19 13-30c0-12-5-22-13-30c-8-9-19-13-30-13z m15 58c-4 4-9 6-15 6l0 11l0-11c-12 0-21-10-21-21c0-6 2-11 6-15c4-4 9-7 15-7c6 0 11 3 15 7c4 4 6 9 6 15c0 5-2 11-6 15z m81 17c-11 0-22 4-30 12c-8 8-13 19-13 30c0 24 19 43 43 43c0 0 0 0 0 0c11 0 22-4 30-13c8-8 13-18 13-30c0-11-5-22-13-30c-8-8-19-12-30-12z m15 57c-4 4-9 7-15 7l0 10l0-10c-12 0-21-10-21-22c0-5 2-11 6-15c4-4 9-6 15-6c6 0 11 2 15 6c4 4 6 10 6 15c0 6-2 11-6 15z"/>
    </symbol>
  
    <symbol id="icon-camera-photo-streamline" viewBox="0 0 512 512">
      <path d="m96 320c-29 0-53 24-53 53c0 30 24 54 53 54c29 0 53-24 53-54c0-29-24-53-53-53z m0 85c-18 0-32-14-32-32c0-17 14-32 32-32c18 0 32 15 32 32c0 18-14 32-32 32z m125 10c5 2 11-1 13-6l19-57l27 0l19 57c2 4 6 7 10 7c1 0 3 0 4-1c5-1 8-7 6-13l-21-64c-1-4-5-7-10-7l-43 0c-4 0-8 3-10 7l-21 64c-2 6 1 12 7 13z m-50-351l21 0l0 107l-21 0z m42 0l22 0l0 107l-22 0z m43 0l21 0l0 107l-21 0z m43 0l21 0l0 107l-21 0z m42 0l22 0l0 107l-22 0z m43 341l85 0l0-64l-85 0z m21-42l43 0l0 21l-43 0z m32-86l-74 0l0-21l-22 0l0-43l11 0c29 0 53-24 53-53l0-139l-277 0l0 139c0 29 24 53 53 53l11 0l0 43l-21 0l0 21l-96 0c-42 0-75 34-75 75l0 43c0 41 33 74 75 74l96 0l0 22l192 0l0-22l74 0c42 0 75-33 75-74l0-43c0-41-33-75-75-75z m-288-117l0-117l235 0l0 117c0 18-14 32-32 32l-171 0c-17 0-32-14-32-32z m64 53l107 0l0 43l-107 0z m-138 235c-30 0-54-24-54-53l0-43c0-29 24-53 54-53l96 0l0 149z m266 21l-149 0l0-192l149 0z m150-74c0 29-24 53-54 53l-74 0l0-149l74 0c30 0 54 24 54 53z"/>
    </symbol>
  
    <symbol id="icon-pen-streamline-1" viewBox="0 0 512 512">
      <path d="m509 64l-61-61c-2-2-4-3-7-3c-3 0-6 1-8 3l-8 9c-21-14-49-12-67 6l-121 121c-4 4-4 11 0 15c2 2 5 3 8 3c2 0 5-1 7-3l121-121c10-9 24-11 36-6l-346 346c-4 4-4 11 0 15l8 8l-38 37c-2 2-3 5-3 8c0 3 1 6 3 8l8 7l-38 38c-4 4-4 11 0 15c2 2 5 3 8 3c2 0 5-1 7-3l38-38l7 8c3 2 5 3 8 3c3 0 5-1 8-3l37-38l8 8c2 2 5 3 7 3c3 0 6-1 8-3l370-370c4-4 4-11 0-15z m-438 392l-15-15l30-30l15 15z m60-30l-37-38c0 0 0 0 0 0c0 0 0 0 0 0l-8-7l234-234l45 45z m249-249l-45-45l106-106l45 45z"/>
    </symbol>
  
    <symbol id="icon-caddie-shopping-streamline" viewBox="0 0 512 512">
      <path d="m216 168c1 1 3 1 4 2c1 0 3 1 4 1c1 0 3-1 4-1c1-1 3-1 4-2l64-64c4-5 4-11 0-16c-5-4-11-4-16 0l-45 46l0-123c0-6-5-11-11-11c-6 0-11 5-11 11l0 123l-45-46c-5-4-11-4-16 0c-4 5-4 11 0 16z m285-104l-74 0c-5 0-10 3-11 8l-28 120l-377 0c-4 0-7 2-9 4c-2 3-3 7-1 10l64 192c1 4 5 7 10 7l263 0l-5 22l-226 0c-24 0-43 19-43 42c0 24 19 43 43 43c23 0 42-19 42-43c0-7-2-15-6-21l162 0c-4 6-6 14-6 21c0 24 19 43 42 43c24 0 43-19 43-43c0-19-13-35-30-40l7-29c1-2 2-3 2-5c0-1 0-1 0-1l72-309l66 0c6 0 11-4 11-10c0-6-5-11-11-11z m-419 320l-57-171l358 0l-40 171z m46 85c0 12-10 22-21 22c-12 0-22-10-22-22c0-11 10-21 22-21c11 0 21 10 21 21z m235 0c0 12-10 22-22 22c-11 0-21-10-21-22c0-11 10-21 21-21c12 0 22 10 22 21z"/>
    </symbol>
  
    <symbol id="icon-map-streamline-user" viewBox="0 0 512 512">
      <path d="m256 149c41 0 75-33 75-74c0-41-34-75-75-75c-41 0-75 34-75 75c0 41 34 74 75 74z m0-128c29 0 53 24 53 54c0 29-24 53-53 53c-29 0-53-24-53-53c0-30 24-54 53-54z m-43 289l0 85c0 6 5 10 11 10l64 0c6 0 11-4 11-10l0-85c47-25 64-90 64-139c0-6-5-11-11-11l-192 0c-6 0-11 5-11 11c0 49 17 114 64 139z m128-129c-2 38-16 95-57 112c-4 2-7 6-7 10l0 81l-42 0l0-81c0-4-3-8-7-10c-41-17-55-74-57-112z m-85 256c-86 0-136-17-139-26c1-2 13-13 55-20c6-1 10-7 9-13c-1-6-6-9-12-8c-49 8-73 22-73 41c0 38 101 48 160 48c59 0 160-10 160-48c0-19-24-33-72-41c-6-1-12 2-13 8c-1 6 3 12 9 13c43 7 54 18 55 19c-3 10-53 27-139 27z m87-112c-6 0-11 4-12 10c-1 5 3 11 9 12c99 12 151 44 151 69c0 35-97 75-235 75c-138 0-235-40-235-75c0-25 52-57 151-69c6-1 10-7 9-12c-1-6-6-10-12-10c-82 11-169 40-169 91c0 47 90 96 256 96c166 0 256-49 256-96c0-51-87-80-169-91z"/>
    </symbol>
  
    <symbol id="icon-happy-smiley-streamline" viewBox="0 0 512 512">
      <path d="m256 0c-141 0-256 115-256 256c0 141 115 256 256 256c141 0 256-115 256-256c0-141-115-256-256-256z m0 491c-129 0-235-106-235-235c0-129 106-235 235-235c129 0 235 106 235 235c0 129-106 235-235 235z m160-224c-6 0-11 4-11 10c0 83-67 150-149 150c-82 0-149-67-149-150c0-6-5-10-11-10c-6 0-11 4-11 10c0 94 77 171 171 171c94 0 171-77 171-171c0-6-5-10-11-10z m-299-43c6 0 11-5 11-11c0-17 14-32 32-32c18 0 32 15 32 32c0 6 5 11 11 11c6 0 10-5 10-11c0-29-24-53-53-53c-29 0-53 24-53 53c0 6 4 11 10 11z m192 0c6 0 11-5 11-11c0-17 14-32 32-32c18 0 32 15 32 32c0 6 5 11 11 11c6 0 10-5 10-11c0-29-24-53-53-53c-29 0-53 24-53 53c0 6 4 11 10 11z"/>
    </symbol>
  
    <symbol id="icon-design-pencil-rule-streamline" viewBox="0 0 512 512">
      <path d="m459 0l-150 0c-6 0-10 5-10 11l0 490c0 6 4 11 10 11l150 0c6 0 10-5 10-11l0-490c0-6-4-11-10-11z m-11 491l-128 0l0-64l43 0l0-22l-43 0l0-42l43 0l0-22l-43 0l0-42l43 0l0-22l-43 0l0-42l43 0l0-22l-43 0l0-42l43 0l0-22l-43 0l0-42l43 0l0-22l-43 0l0-64l128 0z m-300-465c-4-6-14-6-18 0l-64 96c-1 2-2 4-2 6l0 309c0 30 24 54 53 54l43 0c29 0 53-24 53-54l0-309c0-2 0-4-1-6z m-9 141c3 3 6 6 10 8l0 188l-21 0l0-188c4-2 8-5 11-8z m-32 196l-22 0l0-188c7 4 14 6 22 6z m-22 21l107 0l0 21l-107 0z m86-21l0-182c7 0 15-2 21-6l0 188z m-32-312l15 24l-31 0z m-54 80l24-35l60 0l23 35l0 8c0 11-10 21-21 21c-12 0-22-10-22-21c0-6-4-11-10-11c-6 0-11 5-11 11c0 11-10 21-21 21c-12 0-22-10-22-21z m75 338l-43 0c-17 0-32-14-32-32l0-10l107 0l0 10c0 18-14 32-32 32z"/>
    </symbol>
  
    <symbol id="icon-arrow-streamline-target" viewBox="0 0 512 512">
      <path d="m459 75l0-54c0 0-161 50-93 131l-25 25c-34-30-78-49-128-49c-106 0-192 86-192 192c0 49 19 94 49 128c0 0 0 0 0 0l-46 46c-4 4-4 11 0 15c3 2 5 3 8 3c3 0 5-1 8-3l45-46c0 0 0 0 0 0c34 30 79 49 128 49c50 0 94-19 128-49c0 0 0 0 1 0l45 46c2 2 5 3 8 3c2 0 5-1 7-3c4-4 4-11 0-15l-45-46c0 0-1 0-1 0c31-34 49-79 49-128c0-49-18-94-49-128l25-25c14 12 27 17 40 17c57 0 91-109 91-109z m-22 0l0 6l-21 21l0-39c7-4 14-7 21-11z m-66 32c3-10 12-20 24-30l0 47l-14 13c-13-16-10-26-10-30z m13 213c0 94-77 171-171 171c-94 0-170-77-170-171c0-94 76-171 170-171c44 0 83 17 113 43l-30 30c-22-19-51-30-83-30c-70 0-128 57-128 128c0 71 58 128 128 128c71 0 128-57 128-128c0-32-11-60-30-83l30-30c27 30 43 70 43 113z m-128 0c0 24-19 43-43 43c-23 0-42-19-42-43c0-24 19-43 42-43c8 0 16 3 22 6l-16 16c-2 0-4 0-6 0c-11 0-21 9-21 21c0 12 10 21 21 21c12 0 22-9 22-21c0-2-1-4-1-5l16-17c4 7 6 14 6 22z m-6-52c-10-8-23-12-37-12c-35 0-64 29-64 64c0 35 29 64 64 64c36 0 64-29 64-64c0-14-4-27-12-37l31-30c15 18 24 41 24 67c0 59-48 107-107 107c-58 0-106-48-106-107c0-59 48-107 106-107c26 0 49 9 68 24z m171-105c-8 0-16-4-25-11l56-56l29 0c-14 31-37 67-60 67z"/>
    </symbol>
  
    <symbol id="icon-computer-network-streamline" viewBox="0 0 512 512">
      <path d="m21 181l0-10l256 0l0-139c0-18-13-32-30-32l-217 0c-16 0-30 14-30 32l0 149c0 18 14 32 30 32l98 0l0-21l-98 0c-5 0-9-5-9-11z m0-149c0-6 4-11 9-11l217 0c5 0 9 5 9 11l0 117l-235 0z m32 203c-6 0-10 4-10 10c0 6 4 11 10 11l75 0l0-21z m414-43l-273 0c-25 0-45 22-45 49l0 179c0 27 20 49 45 49l126 0l0 22l-85 0c-6 0-11 4-11 10c0 6 5 11 11 11l188 0c6 0 11-5 11-11c0-6-5-10-11-10l-82 0l0-22l126 0c25 0 45-22 45-49l0-179c0-27-20-49-45-49z m-273 21l273 0c13 0 24 13 24 28l0 143l-320 0l0-143c0-15 10-28 23-28z m273 235l-273 0c-13 0-23-12-23-28l0-15l320 0l0 15c0 16-11 28-24 28z m-126-21c0 6-4 10-10 10c-6 0-11-4-11-10c0-6 5-11 11-11c6 0 10 5 10 11z"/>
    </symbol>
  
</svg>
